<?xml version="1.0" ?><svg height="16px" id="SVGRoot" version="1.1" viewBox="0 0 16 16" width="16px" xmlns="http://www.w3.org/2000/svg" xmlns:cc="http://creativecommons.org/ns#" xmlns:dc="http://purl.org/dc/elements/1.1/" xmlns:inkscape="http://www.inkscape.org/namespaces/inkscape" xmlns:rdf="http://www.w3.org/1999/02/22-rdf-syntax-ns#" xmlns:sodipodi="http://sodipodi.sourceforge.net/DTD/sodipodi-0.dtd" xmlns:svg="http://www.w3.org/2000/svg"><defs id="defs10"/><g id="layer1"><path d="m 9.511518,1.2910156 0.02718,1.5469655 H 3.1266045 c -0.2262242,0 -0.425929,0.090361 -0.5843588,0.2264957 -0.016456,0.013424 -0.036691,0.021795 -0.052094,0.036239 -0.014737,0.014575 -0.02253,0.034272 -0.036239,0.049829 C 2.3127488,3.3025837 2.2191437,3.4931879 2.2183568,3.7099895 L 2.207032,6.7518265 C 2.2052798,7.2346781 2.6227341,7.6233067 3.1447241,7.6238348 3.6667142,7.624363 4.0897236,7.2346781 4.091476,6.7518265 L 4.098266,4.7224252 H 9.574931 L 9.604381,6.2444761 11.72438,4.9670405 13.846645,3.6873399 11.679081,2.4891778 Z m 3.397435,6.3781183 c -0.52199,-5.282e-4 -0.944999,0.3891569 -0.946752,0.8720085 l -0.0068,2.0294016 H 6.4787405 L 6.4492961,9.0484927 4.3292966,10.325928 2.207032,11.605629 l 2.1675637,1.198162 2.1675636,1.198162 -0.027179,-1.546965 h 6.4120927 c 0.226225,0 0.425929,-0.09036 0.584358,-0.226496 0.01646,-0.01343 0.03669,-0.02179 0.05209,-0.03624 0.01474,-0.01458 0.02253,-0.03426 0.03624,-0.04983 0.141163,-0.15204 0.234768,-0.342643 0.235555,-0.559444 l 0.01133,-3.0418376 C 13.848359,8.0582923 13.430944,7.669662 12.908953,7.6691339 Z" id="rect26" style="fill:#000000;stroke:none;stroke-width:1.15965784"/></g></svg>