<?xml version="1.0" ?><svg data-name="Layer 1" id="Layer_1" viewBox="0 0 128 128" xmlns="http://www.w3.org/2000/svg"><title/><path d="M98,0H30A30,30,0,0,0,0,30V98a30,30,0,0,0,30,30H98a30,30,0,0,0,30-30V30A30,30,0,0,0,98,0ZM66.9,98.6A34.89,34.89,0,0,1,41.5,87.5a2.12,2.12,0,1,1,3.1-2.9,30.33,30.33,0,1,0-7.4-27.3l1.3-1.5a2.06,2.06,0,1,1,3.2,2.6L36,65.3l-.1.1c0,.1-.1.1-.1.2l-.1.1a.1.1,0,0,0-.1.1l-.1.1c-.1,0-.1.1-.2.1h-.2a.35.35,0,0,0-.2.1h-1c-.1,0-.2,0-.2-.1h-.2c-.1,0-.1-.1-.2-.1l-.1-.1a.1.1,0,0,1-.1-.1l-.1-.1c-.1,0-.1-.1-.1-.2l-.1-.1L27,58.4a2,2,0,0,1,.3-2.9,2.06,2.06,0,0,1,2.9.3l2.4,2.9A34.65,34.65,0,1,1,66.9,98.6Z"/></svg>