<?xml version="1.0" encoding="iso-8859-1"?>
<!-- Generator: Adobe Illustrator 18.1.1, SVG Export Plug-In . SVG Version: 6.00 Build 0)  -->
<svg version="1.1" id="Capa_1" xmlns="http://www.w3.org/2000/svg" xmlns:xlink="http://www.w3.org/1999/xlink" x="0px" y="0px"
	 viewBox="0 0 213.789 213.789" style="enable-background:new 0 0 213.789 213.789;" xml:space="preserve">
<g id="Volume_1">
	<path style="fill-rule:evenodd;clip-rule:evenodd;" d="M177.737,38.249l-34.69,29.64c15.14,6.818,27.191,21.681,27.191,39.034
		s-12.051,32.216-27.191,39.034l34.69,29.64c21.294-15.717,36.052-40.586,36.052-68.674
		C213.789,78.834,199.031,53.965,177.737,38.249z M108.672,12.052L44.747,62.176H17.899c-13.227,0-17.898,4.826-17.898,17.898
		L0,106.475l0.001,27.295c0,13.072,4.951,17.898,17.898,17.898h26.848l63.925,50.068c7.668,4.948,16.559,6.505,16.559-7.365V19.418
		C125.232,5.548,116.341,7.105,108.672,12.052z"/>
</g>
<g>
</g>
<g>
</g>
<g>
</g>
<g>
</g>
<g>
</g>
<g>
</g>
<g>
</g>
<g>
</g>
<g>
</g>
<g>
</g>
<g>
</g>
<g>
</g>
<g>
</g>
<g>
</g>
<g>
</g>
</svg>
